<svg xmlns="http://www.w3.org/2000/svg" version="1.1" xmlns:xlink="http://www.w3.org/1999/xlink" xmlns:svgjs="http://svgjs.com/svgjs" width="1440" height="560" preserveAspectRatio="none" viewBox="0 0 1440 560"><g clip-path="url(&quot;#SvgjsClipPath1005&quot;)" fill="none"><rect width="1440" height="560" x="0" y="0" fill="rgba(0, 0, 0, 0.89)"></rect><circle r="93.335" cx="55.33" cy="42.98" stroke="#e0046c" stroke-opacity="0.47" stroke-width="2"></circle><circle r="93.335" cx="305.87" cy="339.45" stroke="#e0046c" stroke-opacity="0.47" stroke-width="2"></circle><circle r="93.335" cx="690.77" cy="713.9" stroke="#e0046c" stroke-opacity="0.47" stroke-width="2"></circle><circle r="131.845" cx="321.01" cy="25.67" stroke="#e0046c" stroke-opacity="0.47" stroke-width="2"></circle><circle r="108.53" cx="1134.24" cy="355.53" stroke="#e0046c" stroke-opacity="0.47" stroke-width="2"></circle><circle r="100.45" cx="851.25" cy="29.57" stroke="#e0046c" stroke-opacity="0.47" stroke-width="2"></circle><circle r="164.31" cx="778.83" cy="168.22" stroke="#e0046c" stroke-opacity="0.47" stroke-width="2"></circle><circle r="155.405" cx="1247.36" cy="273.46" stroke="#e0046c" stroke-opacity="0.47" stroke-width="2"></circle><circle r="159.655" cx="135.87" cy="251.49" stroke="#e0046c" stroke-opacity="0.47" stroke-width="2"></circle><circle r="78.3" cx="798.47" cy="95.25" stroke="#e0046c" stroke-opacity="0.47" stroke-width="2"></circle><circle r="184.72" cx="489.77" cy="451.38" stroke="#e0046c" stroke-opacity="0.47" stroke-width="2"></circle><circle r="76.645" cx="684.53" cy="142.57" stroke="#e0046c" stroke-opacity="0.47" stroke-width="2"></circle><circle r="158.065" cx="110.76" cy="190.45" stroke="#e0046c" stroke-opacity="0.47" stroke-width="2"></circle><circle r="101.515" cx="778.07" cy="414.56" stroke="#e0046c" stroke-opacity="0.47" stroke-width="2"></circle><circle r="155.245" cx="1368.39" cy="32.23" stroke="#e0046c" stroke-opacity="0.47" stroke-width="2"></circle><circle r="55.805" cx="709.42" cy="70.5" stroke="#e0046c" stroke-opacity="0.47" stroke-width="2"></circle><circle r="76.72" cx="482.97" cy="105.14" stroke="#e0046c" stroke-opacity="0.47" stroke-width="2"></circle><circle r="136.62" cx="727.01" cy="343.53" stroke="#e0046c" stroke-opacity="0.47" stroke-width="2"></circle><circle r="62.9" cx="724.18" cy="377.35" stroke="#e0046c" stroke-opacity="0.47" stroke-width="2"></circle><circle r="148.025" cx="232.39" cy="465.84" stroke="#e0046c" stroke-opacity="0.47" stroke-width="2"></circle><circle r="101.72" cx="1043.49" cy="370.26" stroke="#e0046c" stroke-opacity="0.47" stroke-width="2"></circle><circle r="160.17" cx="400.95" cy="18.02" stroke="#e0046c" stroke-opacity="0.47" stroke-width="2"></circle><circle r="128.315" cx="805.04" cy="332.16" stroke="#e0046c" stroke-opacity="0.47" stroke-width="2"></circle><circle r="63.345" cx="748.39" cy="381.02" stroke="#e0046c" stroke-opacity="0.47" stroke-width="2"></circle><circle r="116.885" cx="1221.45" cy="13.62" stroke="#e0046c" stroke-opacity="0.47" stroke-width="2"></circle><circle r="177.48" cx="629.15" cy="225.11" stroke="#e0046c" stroke-opacity="0.47" stroke-width="2"></circle><circle r="177.05" cx="1427.24" cy="546.2" stroke="#e0046c" stroke-opacity="0.47" stroke-width="2"></circle><circle r="124.125" cx="1211.26" cy="527.95" stroke="#e0046c" stroke-opacity="0.47" stroke-width="2"></circle><circle r="72.02" cx="1265.6" cy="307.97" stroke="#e0046c" stroke-opacity="0.47" stroke-width="2"></circle><circle r="146.515" cx="1160.82" cy="156.7" stroke="#e0046c" stroke-opacity="0.47" stroke-width="2"></circle><circle r="64.58" cx="870.9" cy="71.56" stroke="#e0046c" stroke-opacity="0.47" stroke-width="2"></circle><circle r="131.005" cx="402.82" cy="264.31" stroke="#e0046c" stroke-opacity="0.47" stroke-width="2"></circle><circle r="141.025" cx="1390.76" cy="58.29" stroke="#e0046c" stroke-opacity="0.47" stroke-width="2"></circle><circle r="69.285" cx="728.19" cy="524.98" stroke="#e0046c" stroke-opacity="0.47" stroke-width="2"></circle><circle r="57.615" cx="573.1" cy="147.85" stroke="#e0046c" stroke-opacity="0.47" stroke-width="2"></circle><circle r="119.82" cx="1040.22" cy="155.01" stroke="#e0046c" stroke-opacity="0.47" stroke-width="2"></circle><circle r="163.92" cx="1197.81" cy="309.5" stroke="#e0046c" stroke-opacity="0.47" stroke-width="2"></circle><circle r="86.815" cx="1283.02" cy="279.41" stroke="#e0046c" stroke-opacity="0.47" stroke-width="2"></circle><circle r="156.13" cx="1326.16" cy="336.26" stroke="#e0046c" stroke-opacity="0.47" stroke-width="2"></circle><circle r="89.855" cx="852.26" cy="177.26" stroke="#e0046c" stroke-opacity="0.47" stroke-width="2"></circle></g><defs><clipPath id="SvgjsClipPath1005"><rect width="1440" height="560" x="0" y="0"></rect></clipPath></defs></svg>